<svg width="72" height="73" viewBox="0 0 72 73" fill="none" xmlns="http://www.w3.org/2000/svg">
<g filter="url(#filter0_d_259_6325)">
<path d="M12 32.5C12 19.2452 22.7452 8.5 36 8.5C49.2548 8.5 60 19.2452 60 32.5C60 45.7548 49.2548 56.5 36 56.5C22.7452 56.5 12 45.7548 12 32.5Z" fill="url(#paint0_linear_259_6325)" fill-opacity="0.16" shape-rendering="crispEdges"/>
<path d="M36.0524 39.7917C35.8811 40.3859 35.4153 40.8483 34.8268 40.9401L34.8815 40.6706C35.2974 40.5673 35.6434 40.2393 35.7936 39.7917H36.0524ZM27.8083 33.069C28.0215 36.6803 30.5293 39.6653 33.8815 40.5661L33.8317 40.8122C30.3642 39.8874 27.7722 36.8005 27.5583 33.069H27.8083ZM44.443 33.069C44.272 36.0537 42.5786 38.6257 40.1335 40.0095L40.0231 39.7839C42.3852 38.4414 44.0216 35.9553 44.192 33.069H44.443ZM36.1247 35.5905V38.7917H35.8747V35.5905H36.1247ZM36.4997 24.0573C40.7749 24.3084 44.1947 27.7597 44.442 32.069H44.192C43.9454 27.8963 40.6353 24.5588 36.4997 24.3083V24.0573ZM35.4997 24.3083C31.3644 24.5591 28.055 27.8965 27.8083 32.069H27.5573C27.8046 27.7599 31.2247 24.3087 35.4997 24.0573V24.3083Z" fill="#474747" stroke="#00BCD4"/>
<path d="M33.5 32.3334C33.5 31.9652 33.7985 31.6667 34.1667 31.6667H37.8333C38.2015 31.6667 38.5 31.9652 38.5 32.3334V32.5C38.5 33.8808 37.3807 35 36 35C34.6192 35 33.5 33.8808 33.5 32.5V32.3334Z" stroke="#00BCD4" stroke-width="1.5"/>
<path d="M37.25 31.6667V30" stroke="#00BCD4" stroke-width="1.5" stroke-linecap="round"/>
<path d="M34.75 31.6667V30" stroke="#00BCD4" stroke-width="1.5" stroke-linecap="round"/>
</g>
<defs>
<filter id="filter0_d_259_6325" x="0" y="0.5" width="72" height="72" filterUnits="userSpaceOnUse" color-interpolation-filters="sRGB">
<feFlood flood-opacity="0" result="BackgroundImageFix"/>
<feColorMatrix in="SourceAlpha" type="matrix" values="0 0 0 0 0 0 0 0 0 0 0 0 0 0 0 0 0 0 127 0" result="hardAlpha"/>
<feOffset dy="4"/>
<feGaussianBlur stdDeviation="6"/>
<feComposite in2="hardAlpha" operator="out"/>
<feColorMatrix type="matrix" values="0 0 0 0 0 0 0 0 0 0 0 0 0 0 0 0 0 0 0.12 0"/>
<feBlend mode="normal" in2="BackgroundImageFix" result="effect1_dropShadow_259_6325"/>
<feBlend mode="normal" in="SourceGraphic" in2="effect1_dropShadow_259_6325" result="shape"/>
</filter>
<linearGradient id="paint0_linear_259_6325" x1="-1.63636" y1="-32.2547" x2="83.2106" y2="12.063" gradientUnits="userSpaceOnUse">
<stop stop-color="#00BCD4"/>
<stop offset="1" stop-color="#7885FF" stop-opacity="0"/>
</linearGradient>
</defs>
</svg>
