<svg width="14" height="14" viewBox="0 0 14 14" fill="none" xmlns="http://www.w3.org/2000/svg">
<path fill-rule="evenodd" clip-rule="evenodd" d="M0.333496 7.00004C0.333496 3.31814 3.31826 0.333374 7.00016 0.333374C10.6821 0.333374 13.6668 3.31814 13.6668 7.00004C13.6668 10.6819 10.6821 13.6667 7.00016 13.6667C3.31826 13.6667 0.333496 10.6819 0.333496 7.00004ZM7.00016 3.66671C6.63197 3.66671 6.3335 3.96518 6.3335 4.33337C6.3335 4.70156 6.63197 5.00004 7.00016 5.00004H7.00683C7.37502 5.00004 7.6735 4.70156 7.6735 4.33337C7.6735 3.96518 7.37502 3.66671 7.00683 3.66671H7.00016ZM7.66683 7.00004C7.66683 6.63185 7.36835 6.33337 7.00016 6.33337C6.63197 6.33337 6.3335 6.63185 6.3335 7.00004V9.66671C6.3335 10.0349 6.63197 10.3334 7.00016 10.3334C7.36835 10.3334 7.66683 10.0349 7.66683 9.66671V7.00004Z" fill="#474747"/>
</svg>
