<svg width="18" height="17" viewBox="0 0 18 17" fill="none" xmlns="http://www.w3.org/2000/svg">
<path d="M14.8333 4.75H9.64987C9.25468 4.75 8.89656 4.51727 8.73606 4.15614L8.07407 2.66667M14.8333 4.75V4.75C15.7538 4.75 16.5 5.49619 16.5 6.41667V14C16.5 15.1046 15.6046 16 14.5 16H3.5C2.39543 16 1.5 15.1046 1.5 14V3C1.5 1.89543 2.39543 1 3.5 1H6.68346C7.07865 1 7.43677 1.23273 7.59727 1.59386L8.07407 2.66667M14.8333 4.75V3.66667C14.8333 3.11438 14.3856 2.66667 13.8333 2.66667H8.07407" stroke="#666666" stroke-width="1.5" stroke-linecap="round" stroke-linejoin="round"/>
</svg>
