<svg width="72" height="73" viewBox="0 0 72 73" fill="none" xmlns="http://www.w3.org/2000/svg">
<g filter="url(#filter0_d_281_8621)">
<path d="M12 32.5C12 19.2452 22.7452 8.5 36 8.5C49.2548 8.5 60 19.2452 60 32.5C60 45.7548 49.2548 56.5 36 56.5C22.7452 56.5 12 45.7548 12 32.5Z" fill="url(#paint0_linear_281_8621)" fill-opacity="0.16" shape-rendering="crispEdges"/>
<path d="M37.9668 25.8989L38.7391 25.1265C40.0189 23.8467 42.0938 23.8467 43.3735 25.1265C44.6533 26.4063 44.6533 28.4811 43.3735 29.7609L42.6011 30.5333M37.9668 25.8989C37.9668 25.8989 38.0633 27.5403 39.5115 28.9885C40.9598 30.4367 42.6011 30.5333 42.6011 30.5333M37.9668 25.8989L30.8657 32.9999C30.3847 33.4809 30.1443 33.7214 29.9374 33.9865C29.6935 34.2994 29.4843 34.6378 29.3136 34.9959C29.169 35.2994 29.0614 35.6221 28.8463 36.2674L27.9349 39.0018M42.6011 30.5333L35.5001 37.6344C35.0191 38.1153 34.7787 38.3558 34.5135 38.5626C34.2007 38.8066 33.8623 39.0158 33.5042 39.1864C33.2006 39.3311 32.878 39.4386 32.2327 39.6537L29.4983 40.5652M27.9349 39.0018L27.7121 39.6702C27.6062 39.9877 27.6889 40.3378 27.9255 40.5745C28.1622 40.8112 28.5123 40.8939 28.8299 40.788L29.4983 40.5652M27.9349 39.0018L29.4983 40.5652" stroke="#00BCD4" stroke-width="1.5"/>
</g>
<defs>
<filter id="filter0_d_281_8621" x="0" y="0.5" width="72" height="72" filterUnits="userSpaceOnUse" color-interpolation-filters="sRGB">
<feFlood flood-opacity="0" result="BackgroundImageFix"/>
<feColorMatrix in="SourceAlpha" type="matrix" values="0 0 0 0 0 0 0 0 0 0 0 0 0 0 0 0 0 0 127 0" result="hardAlpha"/>
<feOffset dy="4"/>
<feGaussianBlur stdDeviation="6"/>
<feComposite in2="hardAlpha" operator="out"/>
<feColorMatrix type="matrix" values="0 0 0 0 0 0 0 0 0 0 0 0 0 0 0 0 0 0 0.12 0"/>
<feBlend mode="normal" in2="BackgroundImageFix" result="effect1_dropShadow_281_8621"/>
<feBlend mode="normal" in="SourceGraphic" in2="effect1_dropShadow_281_8621" result="shape"/>
</filter>
<linearGradient id="paint0_linear_281_8621" x1="-1.63636" y1="-32.2547" x2="83.2106" y2="12.063" gradientUnits="userSpaceOnUse">
<stop stop-color="#00BCD4"/>
<stop offset="1" stop-color="#7885FF" stop-opacity="0"/>
</linearGradient>
</defs>
</svg>
