<svg width="48" height="48" viewBox="0 0 48 48" fill="none" xmlns="http://www.w3.org/2000/svg">
<path d="M0 12C0 5.37258 5.37258 0 12 0H36C42.6274 0 48 5.37258 48 12V36C48 42.6274 42.6274 48 36 48H12C5.37258 48 0 42.6274 0 36V12Z" fill="#00BCD4"/>
<path d="M22.872 24.504H21.6V32.544H23.16V33H15.36V32.544H16.92V16.656H15.36V16.2H22.608C24.688 16.2 26.16 16.312 27.024 16.536C27.904 16.744 28.52 17 28.872 17.304C29.64 17.928 30.024 18.92 30.024 20.28C30.024 21.64 29.688 22.616 29.016 23.208C28.344 23.784 27.32 24.128 25.944 24.24V24.312C27.24 24.488 28.144 24.872 28.656 25.464C29.168 26.056 29.424 27.048 29.424 28.44V29.712C29.424 30.544 29.464 31.104 29.544 31.392C29.64 31.68 29.832 31.824 30.12 31.824C30.408 31.824 30.632 31.696 30.792 31.44C30.968 31.168 31.128 30.608 31.272 29.76L31.68 29.808C31.504 31.168 31.192 32.08 30.744 32.544C30.312 33.008 29.44 33.24 28.128 33.24C26.816 33.24 25.88 32.936 25.32 32.328C24.776 31.704 24.504 30.544 24.504 28.848V27.096C24.504 26.2 24.384 25.544 24.144 25.128C23.92 24.712 23.496 24.504 22.872 24.504ZM21.6 16.656V24.048H22.368C23.28 24.048 23.952 23.768 24.384 23.208C24.832 22.648 25.056 21.736 25.056 20.472V19.776C25.056 18.512 24.84 17.68 24.408 17.28C23.992 16.864 23.32 16.656 22.392 16.656H21.6Z" fill="#00080A"/>
</svg>
